<?xml version="1.0" encoding="UTF-8" ?>
<!DOCTYPE svg PUBLIC "-//W3C//DTD SVG 1.1//EN" "http://www.w3.org/Graphics/SVG/1.1/DTD/svg11.dtd">
<svg width="1024pt" height="1024pt" viewBox="0 0 1024 1024" version="1.1" xmlns="http://www.w3.org/2000/svg">
<g id="#000000ff">
</g>
<g id="#6d242fff">
<path fill="#6d242f" opacity="1.00" d=" M 531.78 255.76 C 538.04 252.75 545.28 252.91 551.99 253.97 C 559.41 255.05 565.53 259.66 571.96 263.14 C 583.07 269.25 593.90 275.85 604.95 282.07 C 611.29 285.66 617.22 289.94 623.69 293.31 C 634.46 298.98 644.26 306.31 654.99 312.05 C 665.01 317.58 674.60 323.87 684.73 329.21 C 693.49 333.74 701.03 340.17 708.58 346.42 C 710.74 348.22 712.82 350.12 714.84 352.10 C 705.33 349.93 697.89 343.40 690.23 337.82 C 678.41 330.36 665.81 324.23 653.69 317.31 C 647.89 314.05 642.53 309.76 635.97 308.08 C 629.89 306.50 623.72 304.93 618.17 301.90 C 607.77 296.32 597.48 290.55 587.15 284.84 C 576.70 278.44 566.08 272.27 554.95 267.11 C 549.73 264.91 543.82 264.53 538.26 265.42 C 531.52 267.01 526.49 272.12 520.97 275.95 C 514.82 280.20 508.50 284.19 502.27 288.31 C 497.61 291.53 491.84 292.77 487.50 296.50 C 481.97 301.05 476.01 305.01 470.31 309.32 C 460.56 316.68 450.17 323.13 440.36 330.40 C 424.87 341.79 408.27 351.54 392.43 362.42 C 386.43 366.52 380.09 370.08 374.05 374.12 C 365.86 379.70 357.58 385.21 348.84 389.91 C 344.41 392.33 340.39 395.40 336.31 398.35 C 336.43 399.20 336.65 400.03 336.96 400.84 C 347.11 395.83 357.35 390.93 366.98 384.94 C 376.23 379.67 385.42 374.26 394.18 368.17 C 401.58 363.18 409.27 358.62 416.65 353.59 C 431.75 342.99 447.13 332.81 462.25 322.24 C 472.04 315.31 482.31 309.09 491.99 302.01 C 499.09 297.10 506.27 292.30 513.35 287.35 C 519.81 282.80 526.78 278.94 532.82 273.80 C 535.11 271.98 537.34 269.84 540.23 268.99 C 542.92 268.48 545.45 270.00 547.78 271.16 C 556.09 275.84 564.17 280.95 572.73 285.17 C 581.61 289.78 590.89 293.55 599.68 298.32 C 610.60 303.57 621.33 309.21 632.05 314.87 C 648.51 324.01 664.55 333.88 681.14 342.78 C 693.88 349.14 706.10 356.47 718.53 363.39 C 724.49 366.67 729.91 370.82 735.79 374.23 C 738.86 376.09 742.09 377.80 744.74 380.27 C 747.16 382.52 748.39 385.70 749.27 388.82 C 751.20 395.70 751.18 402.91 751.26 410.00 C 751.37 420.99 752.26 431.97 752.11 442.97 C 752.01 446.03 751.84 449.09 751.87 452.16 C 750.86 450.57 749.93 448.94 749.02 447.31 C 746.21 449.79 743.51 452.45 740.34 454.46 C 737.81 456.25 734.65 455.02 731.83 455.13 C 730.19 455.02 728.87 456.14 727.49 456.83 C 727.90 450.20 727.19 443.58 726.95 436.97 C 726.64 428.65 725.29 420.42 724.71 412.13 C 724.10 404.44 723.92 396.73 723.99 389.03 C 726.93 391.48 729.94 393.86 733.12 396.00 C 732.67 393.80 732.46 391.50 731.47 389.47 C 730.18 387.44 728.08 386.13 726.13 384.82 C 721.38 381.87 716.42 379.26 711.61 376.42 C 703.56 371.83 695.83 366.70 687.68 362.30 C 678.91 357.57 670.59 352.09 662.02 347.03 C 656.57 343.76 650.98 340.74 645.49 337.55 C 638.76 333.67 632.44 329.14 625.65 325.38 C 610.91 317.31 595.94 309.47 579.94 304.20 C 584.38 308.19 589.35 311.54 594.62 314.35 C 603.58 319.16 611.46 325.70 620.29 330.72 C 627.93 335.14 635.78 339.17 643.48 343.49 C 652.57 348.68 661.48 354.20 670.58 359.38 C 680.68 365.24 690.25 372.00 700.71 377.22 C 707.20 380.44 713.54 384.02 719.34 388.39 C 716.12 390.16 712.80 392.19 709.02 392.28 C 703.14 392.42 697.52 390.25 692.31 387.73 C 683.68 383.50 675.58 378.30 667.02 373.94 C 654.33 367.42 642.04 360.15 629.40 353.54 C 604.06 339.31 578.79 324.96 553.63 310.42 C 548.20 307.22 542.97 303.68 537.34 300.81 C 536.47 301.78 535.70 302.83 535.03 303.94 C 536.48 306.04 538.05 308.06 539.51 310.17 C 535.99 313.50 532.20 316.56 528.08 319.12 C 511.44 329.68 495.21 340.87 478.79 351.76 C 467.51 359.15 456.26 366.58 445.01 374.01 C 424.24 387.99 403.00 401.24 382.23 415.20 C 382.07 427.14 382.77 439.07 382.68 451.01 C 382.86 471.34 382.82 491.67 382.92 512.00 C 382.87 527.70 383.63 543.39 383.12 559.09 C 382.93 572.07 383.92 585.06 382.88 598.02 C 382.56 604.21 381.37 610.45 382.23 616.64 C 382.56 616.87 383.23 617.31 383.56 617.53 C 389.79 619.17 396.38 617.20 402.64 618.70 C 408.00 620.18 412.20 624.96 418.02 624.89 C 423.37 624.67 428.50 622.65 433.89 622.67 C 446.55 622.99 459.24 623.33 471.90 622.63 C 479.70 622.25 487.51 621.83 495.30 622.45 C 493.47 623.84 491.66 625.25 489.84 626.65 C 495.12 626.76 500.41 626.78 505.70 626.58 C 520.03 626.08 534.38 626.13 548.71 625.57 C 563.70 624.99 578.72 625.24 593.71 624.60 C 604.81 624.12 615.93 624.11 627.04 623.83 C 654.01 622.83 681.01 622.85 707.99 622.04 C 715.67 621.76 723.35 621.79 731.04 621.71 C 730.68 614.84 729.75 608.03 728.72 601.25 C 726.83 588.61 726.43 575.80 724.38 563.19 C 726.37 561.80 728.39 560.43 730.41 559.08 C 733.87 565.63 732.47 573.22 733.59 580.29 C 734.30 586.79 734.70 593.33 735.44 599.83 C 736.27 607.07 736.01 614.36 736.39 621.63 C 740.83 621.77 745.28 621.79 749.72 621.53 C 766.48 620.56 783.28 620.72 800.06 620.64 C 808.18 620.61 816.95 618.62 824.35 623.04 C 822.17 625.09 819.88 627.33 816.81 627.88 C 809.15 629.52 801.19 628.93 793.55 630.66 C 789.62 631.62 786.63 634.65 782.80 635.83 C 778.68 636.73 774.42 636.15 770.25 636.42 C 764.63 636.56 759.61 639.58 754.03 639.97 C 744.31 640.81 734.63 642.20 724.88 642.75 C 721.74 643.00 718.54 642.95 715.48 643.76 C 712.49 644.85 710.12 647.18 707.08 648.18 C 705.12 648.77 703.06 648.92 701.04 649.07 C 688.02 649.62 675.01 650.46 662.00 651.14 C 640.65 651.76 619.33 653.24 598.03 654.86 C 582.97 655.66 567.94 656.91 552.89 657.75 C 490.88 661.09 428.98 666.22 366.97 669.72 C 357.30 670.21 347.65 671.02 338.00 671.83 C 333.78 672.10 328.44 672.18 325.84 668.18 C 324.87 665.04 325.97 661.66 325.56 658.44 C 323.48 655.70 320.06 654.50 317.21 652.76 C 316.92 649.48 317.04 646.10 316.09 642.93 C 313.59 641.06 310.27 640.14 308.49 637.42 C 306.63 634.88 306.28 631.67 306.02 628.64 C 312.39 626.63 319.08 625.34 324.93 621.98 C 328.90 619.70 332.74 617.18 336.29 614.28 C 341.70 609.84 345.25 603.68 348.80 597.76 C 352.24 591.80 355.45 585.18 354.98 578.10 C 354.57 572.98 352.81 567.52 348.64 564.24 C 346.59 562.59 343.83 562.73 341.37 562.48 C 341.11 568.09 341.28 573.93 339.15 579.24 C 337.22 583.96 334.19 588.11 331.18 592.19 C 326.01 598.93 320.48 605.61 313.31 610.32 C 308.35 613.61 302.24 615.27 296.30 614.54 C 290.60 613.84 285.64 610.46 279.94 609.79 C 277.65 609.46 275.33 610.16 273.43 611.45 C 266.51 616.09 262.57 623.96 255.57 628.51 C 252.46 630.53 249.16 632.26 245.73 633.65 C 240.56 635.75 234.90 635.78 229.46 636.64 C 224.21 637.36 218.80 638.78 213.54 637.31 C 206.60 635.42 200.47 631.40 193.52 629.52 C 185.28 627.29 176.63 627.50 168.20 628.09 C 158.63 628.82 148.98 629.86 139.78 632.72 C 136.70 633.60 133.95 635.53 132.36 638.34 C 128.16 645.35 123.89 652.37 118.62 658.64 C 112.54 665.67 104.09 670.13 95.55 673.46 C 90.17 675.64 84.24 676.16 78.54 675.19 C 80.38 673.77 82.19 672.17 84.45 671.47 C 87.78 670.47 91.27 670.25 94.64 669.46 C 99.57 668.34 104.06 665.90 108.44 663.46 C 112.14 661.35 115.95 659.10 118.54 655.62 C 121.64 651.50 123.59 646.69 126.17 642.26 C 128.77 637.70 132.04 633.42 136.28 630.28 C 140.16 627.41 145.17 627.18 149.78 626.51 C 156.86 625.70 163.86 624.20 170.99 623.74 C 178.55 623.22 186.13 624.49 193.39 626.55 C 199.40 628.22 204.91 631.33 210.98 632.81 C 215.71 633.98 220.73 634.29 225.51 633.17 C 229.71 632.17 233.81 630.71 238.09 630.03 C 243.90 629.03 250.00 628.27 255.09 625.05 C 259.81 622.13 262.01 616.70 266.11 613.11 C 270.47 609.27 275.58 606.44 280.49 603.39 C 284.01 606.39 287.73 609.60 292.45 610.36 C 297.18 611.17 302.09 610.82 306.70 609.55 C 311.62 608.10 315.09 604.09 318.87 600.87 C 324.36 596.26 327.94 589.97 332.29 584.38 C 337.13 578.28 338.94 570.45 339.73 562.87 C 340.22 557.74 338.75 552.74 337.64 547.80 C 335.17 548.19 332.60 548.35 330.32 549.45 C 326.89 551.20 324.23 554.24 320.58 555.59 C 318.13 556.46 315.15 555.43 313.77 553.23 C 311.56 548.32 314.38 541.79 310.29 537.67 C 304.81 536.24 299.04 536.56 293.43 536.01 C 296.89 535.12 300.34 534.15 303.83 533.41 C 303.92 530.99 304.03 528.57 304.04 526.15 C 303.63 512.77 303.64 499.39 303.65 486.01 C 303.64 470.02 304.15 454.02 303.13 438.06 C 302.64 426.47 302.16 414.76 304.30 403.29 C 305.38 395.51 307.45 387.60 312.29 381.26 C 313.52 379.76 315.25 378.81 316.86 377.77 C 314.93 384.22 311.09 389.90 309.39 396.43 C 307.97 401.29 307.30 406.67 309.61 411.39 C 312.01 405.80 313.17 399.69 316.40 394.46 C 319.40 388.93 323.26 383.96 327.03 378.94 C 329.42 376.37 326.63 372.51 328.83 369.88 C 334.92 361.80 343.78 356.57 352.09 351.07 C 360.08 345.34 368.01 339.52 376.35 334.31 C 383.45 329.89 389.87 324.49 396.81 319.83 C 401.97 316.42 406.87 312.34 412.98 310.75 C 410.05 314.90 405.96 317.96 401.80 320.77 C 386.52 331.04 373.18 344.06 357.07 353.11 C 351.07 356.58 345.13 360.30 339.99 364.99 C 334.52 369.98 333.70 377.81 329.80 383.82 C 325.37 390.70 320.08 397.07 316.61 404.53 C 314.99 408.12 314.81 412.13 314.70 416.01 C 314.56 426.33 315.24 436.64 315.92 446.93 C 316.58 463.61 316.06 480.31 316.81 496.99 C 317.21 502.85 316.39 509.00 318.47 514.60 C 320.31 515.60 322.51 515.99 324.58 515.62 C 326.30 514.68 326.38 512.52 326.61 510.81 C 327.37 487.87 327.72 464.89 326.88 441.94 C 326.54 436.91 324.68 432.10 324.80 427.03 C 324.89 420.01 324.88 412.99 324.78 405.97 C 324.93 402.88 324.52 399.23 326.89 396.84 C 329.91 393.69 333.91 391.78 337.62 389.59 C 342.64 386.80 347.40 383.57 351.91 380.01 C 351.28 378.37 350.67 376.73 350.05 375.10 C 366.83 363.14 384.50 352.46 402.55 342.52 C 414.37 335.32 426.60 328.79 438.24 321.29 C 456.85 308.93 476.14 297.52 493.82 283.83 C 501.57 277.87 510.01 272.84 517.49 266.53 C 522.14 262.80 526.38 258.43 531.78 255.76 M 524.26 266.31 C 517.87 271.53 510.93 276.11 505.08 281.97 C 510.15 278.82 514.81 275.11 519.58 271.55 C 523.41 268.72 526.79 265.29 530.87 262.81 C 535.69 259.88 541.53 259.40 547.05 259.57 C 553.25 259.77 558.67 263.17 564.01 265.97 C 573.75 271.70 583.52 277.47 593.95 281.89 C 584.82 274.13 574.73 267.51 564.18 261.85 C 556.83 257.76 548.13 257.89 539.97 258.15 C 533.74 258.33 528.98 262.80 524.26 266.31 M 532.96 284.95 C 527.75 289.73 521.69 293.58 517.05 298.97 C 521.19 297.30 525.19 295.29 529.00 292.97 C 531.98 291.24 534.91 289.21 538.33 288.45 C 540.87 287.80 543.57 287.65 545.99 286.58 C 546.42 282.73 542.54 280.93 540.01 278.91 C 537.62 280.88 535.26 282.88 532.96 284.95 M 711.87 366.18 C 719.60 374.50 729.50 380.46 737.51 388.49 C 740.18 391.05 741.02 394.77 742.00 398.19 C 745.11 394.22 744.65 388.27 741.51 384.46 C 738.13 380.35 733.33 377.83 728.83 375.15 C 723.26 372.01 718.00 368.20 711.87 366.18 M 730.57 410.21 C 731.66 424.76 731.97 439.37 733.63 453.88 C 736.01 453.63 738.40 453.36 740.78 453.08 C 740.98 446.37 740.80 439.65 740.08 432.97 C 739.27 425.71 739.28 418.35 737.80 411.18 C 733.77 409.81 732.93 405.33 731.26 401.96 C 730.73 404.67 730.36 407.44 730.57 410.21 M 742.31 406.34 C 741.74 409.61 742.48 412.94 742.89 416.20 C 744.60 426.48 743.78 437.11 746.74 447.19 C 748.94 438.97 747.39 430.40 747.01 422.05 C 746.42 415.56 747.79 408.71 744.87 402.62 C 743.95 403.81 742.97 404.98 742.31 406.34 Z" />
<path fill="#6d242f" opacity="1.00" d=" M 715.11 396.85 C 715.54 396.81 716.39 396.73 716.82 396.69 C 718.77 401.00 718.91 405.81 719.60 410.42 C 721.04 420.54 721.92 430.73 723.25 440.87 C 724.20 447.71 723.99 454.91 727.19 461.23 C 727.17 461.52 727.14 462.11 727.12 462.40 C 723.08 462.33 719.00 463.06 715.87 465.81 C 715.74 462.47 715.45 459.13 715.27 455.80 C 714.38 442.13 713.41 428.46 712.20 414.81 C 711.92 408.77 711.65 402.13 715.11 396.85 Z" />
<path fill="#6d242f" opacity="1.00" d=" M 786.70 512.68 C 790.97 508.70 793.46 502.88 798.98 500.31 C 799.44 504.28 799.17 508.28 799.02 512.27 C 798.75 515.96 801.25 518.96 803.23 521.81 C 805.52 524.83 807.63 528.03 810.41 530.64 C 813.41 533.43 817.88 532.99 821.63 532.52 C 826.91 531.61 832.22 530.71 837.37 529.19 C 842.41 527.75 845.12 522.82 849.43 520.22 C 851.91 519.74 854.39 520.69 856.82 521.16 C 863.51 523.03 870.60 522.41 877.36 521.25 C 881.34 520.63 883.85 517.23 886.88 514.94 C 888.83 513.38 891.44 513.25 893.77 512.60 C 894.29 513.10 895.34 514.10 895.87 514.60 C 891.23 518.78 886.64 523.20 880.97 525.97 C 875.74 528.61 869.58 529.45 863.86 528.15 C 860.11 527.30 856.83 525.11 853.11 524.20 C 849.93 525.35 847.72 528.07 845.09 530.06 C 841.53 533.04 837.01 534.45 832.60 535.65 C 827.94 536.85 823.03 537.67 818.25 536.78 C 814.98 536.20 812.09 534.46 809.45 532.55 C 805.42 529.63 801.56 526.48 797.92 523.09 C 796.14 521.52 794.40 519.80 792.22 518.79 C 790.45 517.86 788.69 519.28 787.34 520.29 C 783.50 523.45 780.22 527.22 776.38 530.38 C 770.71 535.10 764.95 539.72 758.85 543.88 C 752.59 548.22 745.12 550.26 737.75 551.78 C 732.92 552.75 727.86 553.20 723.03 552.00 C 718.56 551.02 714.46 548.77 709.93 548.08 C 707.02 547.70 704.85 550.16 702.71 551.74 C 696.77 557.02 689.10 560.79 681.05 560.95 C 675.18 561.03 670.23 557.58 665.57 554.45 C 662.89 552.53 659.59 552.07 656.41 551.68 C 653.60 556.27 651.38 561.63 646.83 564.82 C 640.82 567.96 633.50 567.69 627.16 565.70 C 623.71 564.79 620.27 562.87 616.61 563.42 C 613.38 566.95 611.69 571.84 607.63 574.61 C 602.25 578.13 594.80 578.07 589.44 574.54 C 584.92 571.68 580.88 568.17 576.63 564.94 C 573.71 567.61 571.09 570.58 568.53 573.58 C 565.59 577.09 561.62 579.43 557.86 581.94 C 554.83 583.93 551.84 586.11 548.34 587.20 C 544.95 588.25 541.40 588.64 537.87 588.90 C 533.75 589.14 529.40 589.17 525.63 587.27 C 522.09 585.70 519.01 582.93 515.10 582.32 C 511.95 582.81 509.80 585.53 507.44 587.44 C 501.36 593.35 492.24 595.93 483.99 594.03 C 476.36 592.42 469.75 588.06 463.54 583.56 C 462.09 587.16 460.97 590.91 459.23 594.40 C 457.84 597.26 454.96 598.93 452.15 600.13 C 448.15 601.75 443.66 602.48 439.42 601.49 C 435.72 600.67 432.40 598.72 429.20 596.75 C 429.04 596.14 428.71 594.91 428.54 594.30 C 434.38 594.07 439.71 597.74 445.59 596.69 C 448.85 596.12 452.65 595.57 454.84 592.83 C 457.50 588.66 457.55 583.36 460.21 579.20 C 461.48 577.36 464.31 575.95 466.35 577.41 C 470.02 580.09 472.24 584.35 476.09 586.84 C 479.29 588.84 483.24 588.90 486.90 588.86 C 491.05 588.68 495.28 588.42 499.25 587.09 C 504.13 585.33 506.87 579.92 512.08 578.85 C 518.92 578.06 524.76 582.68 531.38 583.41 C 535.86 583.86 540.42 583.51 544.84 582.70 C 548.53 582.05 551.40 579.51 554.41 577.48 C 556.80 575.79 559.41 574.41 561.78 572.67 C 564.27 570.84 565.93 568.16 567.87 565.80 C 571.86 560.88 576.94 556.52 583.21 554.93 C 583.73 558.65 583.87 562.66 586.04 565.88 C 587.72 568.38 590.04 570.91 593.20 571.31 C 598.31 571.79 603.68 570.03 607.30 566.32 C 612.83 561.05 614.24 553.14 618.76 547.15 C 621.41 550.80 623.12 554.99 625.25 558.93 C 626.69 561.72 630.04 562.71 632.98 562.71 C 640.32 562.63 647.05 558.05 650.76 551.86 C 653.41 547.36 655.68 542.61 658.87 538.44 C 661.57 541.97 663.98 545.73 666.92 549.09 C 669.72 552.29 673.71 554.73 678.08 554.70 C 682.11 554.68 686.09 553.84 690.05 553.15 C 692.41 552.62 694.94 552.30 696.97 550.88 C 699.42 549.05 701.25 546.53 703.71 544.70 C 706.15 542.89 709.57 542.44 712.37 543.67 C 716.13 545.14 719.61 547.84 723.85 547.69 C 734.91 547.57 746.03 545.07 755.78 539.76 C 759.78 537.59 762.79 534.12 765.98 530.97 C 769.84 527.09 774.82 524.59 778.66 520.69 C 781.33 518.01 783.98 515.31 786.70 512.68 Z" />
</g>
<g id="#27171dff">
<path fill="#27171d" opacity="1.00" d=" M 902.04 419.93 C 908.88 418.16 915.98 419.49 922.94 418.90 C 932.04 418.23 941.16 421.20 948.60 426.37 C 951.52 428.38 953.77 431.18 956.62 433.29 C 960.12 435.68 964.43 436.57 967.79 439.20 C 970.33 441.16 971.61 444.20 973.32 446.83 C 975.69 450.67 979.65 453.12 982.31 456.74 C 987.06 462.69 987.93 471.20 985.34 478.25 C 983.22 484.07 980.49 489.73 976.61 494.60 C 971.71 500.94 966.93 507.72 959.87 511.85 C 953.42 515.51 945.83 518.28 938.34 516.77 C 934.09 515.94 930.86 512.75 926.83 511.40 C 923.32 511.22 921.04 514.58 918.94 516.91 C 915.05 522.02 909.83 525.82 905.20 530.20 C 898.94 536.07 890.62 539.92 882.00 540.22 C 876.52 540.47 871.47 537.82 866.08 537.51 C 862.37 537.90 859.44 540.55 856.30 542.34 C 848.99 547.16 839.89 549.38 831.22 547.88 C 827.14 547.16 823.53 545.06 819.80 543.40 C 817.22 542.22 814.53 541.30 812.04 539.97 C 809.30 538.50 807.21 536.15 804.69 534.40 C 802.52 532.75 799.39 532.90 797.11 534.22 C 794.87 535.54 793.00 537.38 791.00 539.02 C 788.10 541.45 784.91 543.52 782.13 546.10 C 778.99 549.00 776.06 552.23 772.30 554.35 C 769.55 556.01 766.41 556.95 763.75 558.77 C 762.29 560.08 761.53 561.96 760.54 563.61 C 752.13 565.80 743.44 565.68 734.84 565.95 C 734.64 570.74 734.40 575.55 733.59 580.29 C 732.47 573.22 733.87 565.63 730.41 559.08 C 728.39 560.43 726.37 561.80 724.38 563.19 C 723.90 561.86 723.37 560.56 722.85 559.27 C 718.99 561.49 715.48 564.21 712.13 567.13 C 705.87 572.66 696.72 574.33 688.74 572.24 C 682.88 570.69 678.11 566.39 672.13 565.26 C 667.30 568.30 664.76 573.80 660.24 577.23 C 656.59 580.20 651.55 580.45 647.07 579.91 C 641.92 579.33 637.83 575.80 632.99 574.31 C 629.14 576.27 627.34 580.51 624.62 583.66 C 620.36 589.46 611.91 591.41 605.39 588.57 C 600.58 586.58 596.65 582.82 591.61 581.31 C 588.76 580.37 586.26 582.56 584.23 584.25 C 579.53 588.54 575.15 593.36 569.49 596.44 C 559.94 601.69 547.99 603.30 537.76 599.11 C 534.60 597.94 531.55 596.17 528.12 596.01 C 524.91 596.62 522.59 599.19 520.03 601.02 C 515.97 604.37 510.81 606.09 505.65 606.68 C 500.11 607.27 494.61 605.59 489.61 603.35 C 486.27 601.86 483.33 599.59 479.94 598.20 C 474.24 600.89 472.71 608.13 467.36 611.35 C 462.87 613.96 457.34 614.78 452.27 613.75 C 447.36 612.72 443.60 608.47 438.50 608.23 C 436.48 610.72 435.30 613.74 434.01 616.65 C 434.98 617.49 435.97 618.34 436.96 619.19 C 435.78 619.79 434.62 620.46 433.51 621.18 C 433.60 621.55 433.79 622.30 433.89 622.67 C 428.50 622.65 423.37 624.67 418.02 624.89 C 412.20 624.96 408.00 620.18 402.64 618.70 C 396.38 617.20 389.79 619.17 383.56 617.53 C 383.23 617.31 382.56 616.87 382.23 616.64 C 381.37 610.45 382.56 604.21 382.88 598.02 C 383.92 585.06 382.93 572.07 383.12 559.09 C 384.03 559.30 384.95 559.52 385.87 559.74 C 387.19 548.89 390.07 538.13 395.48 528.58 C 398.04 524.17 400.42 519.61 403.63 515.63 C 406.14 512.46 410.27 511.46 414.04 510.72 C 419.63 509.58 425.36 509.98 431.01 509.52 C 435.28 509.18 439.15 507.20 443.27 506.23 C 450.46 504.52 458.02 506.96 465.14 504.79 C 469.36 503.45 473.34 501.43 477.66 500.38 C 484.04 498.75 491.09 497.88 497.33 500.54 C 501.68 502.28 505.08 505.74 509.44 507.44 C 512.19 508.47 514.60 506.13 516.61 504.59 C 522.67 499.18 529.06 494.01 536.28 490.22 C 542.94 487.09 550.20 484.52 557.67 485.01 C 564.48 485.37 571.44 485.59 577.93 487.91 C 581.21 488.81 584.79 490.44 588.19 489.20 C 591.53 486.89 593.21 482.79 596.76 480.72 C 599.91 478.94 603.36 477.74 606.83 476.77 C 612.00 475.32 617.42 475.89 622.70 475.27 C 627.94 474.66 632.82 472.29 638.10 471.93 C 644.24 471.40 650.53 472.90 656.57 471.20 C 660.98 469.85 664.93 467.23 669.50 466.31 C 674.54 465.28 679.71 464.59 684.87 464.86 C 692.98 465.17 698.06 474.65 706.56 473.09 C 713.48 470.69 715.22 462.28 715.27 455.80 C 715.45 459.13 715.74 462.47 715.87 465.81 C 715.94 468.75 716.09 471.75 715.40 474.64 C 714.59 477.66 712.23 479.95 709.84 481.80 C 707.46 483.54 704.56 485.04 701.53 484.66 C 698.53 480.90 696.88 475.98 692.72 473.23 C 687.11 469.02 679.50 469.02 673.01 470.90 C 668.86 472.03 665.22 474.37 661.66 476.68 C 659.76 477.78 657.78 479.26 655.47 478.97 C 651.27 478.52 647.24 476.93 642.99 476.85 C 638.21 476.68 633.63 478.37 629.41 480.43 C 626.95 481.52 624.55 482.95 621.83 483.24 C 617.00 483.26 612.38 480.89 607.51 481.59 C 604.32 482.12 601.11 483.45 598.93 485.91 C 596.71 488.57 595.56 491.90 593.65 494.76 C 591.77 497.74 587.80 499.05 584.43 498.39 C 579.51 496.71 575.85 492.37 570.62 491.37 C 563.60 489.98 556.38 490.95 549.39 492.10 C 544.70 492.90 539.90 494.09 536.07 497.05 C 532.28 499.93 528.48 502.83 524.77 505.81 C 521.41 508.49 519.26 512.29 516.39 515.42 C 514.54 517.56 511.30 518.58 508.63 517.53 C 504.75 514.32 502.91 509.05 498.34 506.60 C 492.86 503.73 486.23 503.50 480.36 505.22 C 476.26 506.38 472.91 509.10 469.40 511.38 C 467.85 512.32 466.17 513.41 464.27 513.20 C 459.16 512.74 454.29 510.32 449.08 510.81 C 442.93 511.51 437.91 515.83 431.79 516.65 C 426.32 517.21 421.00 514.99 415.53 515.37 C 412.20 515.60 408.77 516.99 406.77 519.76 C 404.67 522.61 403.40 525.95 401.97 529.17 C 399.27 535.52 396.23 541.78 394.46 548.48 C 392.89 554.33 392.44 560.40 391.07 566.29 C 389.69 572.53 387.31 578.60 387.04 585.04 C 386.73 591.83 389.09 598.55 392.90 604.11 C 394.68 606.71 397.11 609.11 400.28 609.86 C 406.68 611.40 413.44 608.49 417.85 603.85 C 421.52 599.84 422.98 594.45 425.16 589.59 C 426.31 591.13 427.52 592.65 428.54 594.30 C 428.71 594.91 429.04 596.14 429.20 596.75 C 432.40 598.72 435.72 600.67 439.42 601.49 C 443.66 602.48 448.15 601.75 452.15 600.13 C 454.96 598.93 457.84 597.26 459.23 594.40 C 460.97 590.91 462.09 587.16 463.54 583.56 C 469.75 588.06 476.36 592.42 483.99 594.03 C 492.24 595.93 501.36 593.35 507.44 587.44 C 509.80 585.53 511.95 582.81 515.10 582.32 C 519.01 582.93 522.09 585.70 525.63 587.27 C 529.40 589.17 533.75 589.14 537.87 588.90 C 541.40 588.64 544.95 588.25 548.34 587.20 C 551.84 586.11 554.83 583.93 557.86 581.94 C 561.62 579.43 565.59 577.09 568.53 573.58 C 571.09 570.58 573.71 567.61 576.63 564.94 C 580.88 568.17 584.92 571.68 589.44 574.54 C 594.80 578.07 602.25 578.13 607.63 574.61 C 611.69 571.84 613.38 566.95 616.61 563.42 C 620.27 562.87 623.71 564.79 627.16 565.70 C 633.50 567.69 640.82 567.96 646.83 564.82 C 651.38 561.63 653.60 556.27 656.41 551.68 C 659.59 552.07 662.89 552.53 665.57 554.45 C 670.23 557.58 675.18 561.03 681.05 560.95 C 689.10 560.79 696.77 557.02 702.71 551.74 C 704.85 550.16 707.02 547.70 709.93 548.08 C 714.46 548.77 718.56 551.02 723.03 552.00 C 727.86 553.20 732.92 552.75 737.75 551.78 C 745.12 550.26 752.59 548.22 758.85 543.88 C 764.95 539.72 770.71 535.10 776.38 530.38 C 780.22 527.22 783.50 523.45 787.34 520.29 C 788.69 519.28 790.45 517.86 792.22 518.79 C 794.40 519.80 796.14 521.52 797.92 523.09 C 801.56 526.48 805.42 529.63 809.45 532.55 C 812.09 534.46 814.98 536.20 818.25 536.78 C 823.03 537.67 827.94 536.85 832.60 535.65 C 837.01 534.45 841.53 533.04 845.09 530.06 C 847.72 528.07 849.93 525.35 853.11 524.20 C 856.83 525.11 860.11 527.30 863.86 528.15 C 869.58 529.45 875.74 528.61 880.97 525.97 C 886.64 523.20 891.23 518.78 895.87 514.60 C 895.34 514.10 894.29 513.10 893.77 512.60 C 895.91 512.04 898.09 511.29 899.76 509.76 C 903.16 506.71 904.82 502.20 908.19 499.12 C 909.57 497.91 911.59 496.95 913.41 497.77 C 918.25 499.75 922.18 503.73 927.44 504.77 C 930.35 505.32 933.11 503.85 935.78 502.90 C 939.47 501.34 943.38 500.41 947.15 499.04 C 950.84 497.77 953.30 494.58 955.75 491.72 C 958.14 488.79 960.74 486.02 962.99 482.98 C 965.81 479.20 966.65 474.45 968.51 470.22 C 970.13 466.27 972.64 462.44 972.50 458.02 C 972.40 451.82 969.56 445.17 963.93 442.13 C 960.10 440.72 955.91 441.81 952.01 440.85 C 949.26 438.51 947.92 435.01 945.73 432.22 C 943.05 428.40 938.45 426.40 933.93 425.92 C 928.65 425.42 923.54 427.43 918.28 427.28 C 913.32 427.17 908.31 426.13 903.39 427.22 C 893.15 429.46 884.23 435.59 876.80 442.79 C 872.59 446.93 868.22 450.89 863.79 454.77 C 860.00 458.05 857.35 462.35 854.09 466.10 C 851.74 468.83 848.55 470.59 845.45 472.32 C 843.70 467.10 842.62 461.37 838.97 457.06 C 835.53 453.16 829.91 452.92 825.76 450.17 C 823.65 448.09 822.80 445.13 821.44 442.58 C 818.30 435.85 811.97 430.14 804.37 429.38 C 800.40 428.84 796.38 429.90 792.90 431.79 C 788.47 434.17 784.23 437.19 781.30 441.34 C 776.76 447.56 776.99 455.93 772.21 462.03 C 768.11 459.05 763.78 456.12 758.69 455.23 C 756.39 454.40 753.23 454.52 751.87 452.16 C 751.84 449.09 752.01 446.03 752.11 442.97 C 754.35 445.32 756.46 448.70 760.09 448.78 C 763.36 448.80 767.52 448.60 769.44 445.49 C 773.04 439.90 775.85 433.39 781.57 429.56 C 787.63 425.65 794.63 422.55 801.99 422.85 C 806.82 423.04 811.75 423.77 816.21 425.75 C 820.47 427.66 823.02 431.77 825.62 435.44 C 829.26 440.69 833.78 445.45 839.41 448.57 C 843.36 450.83 847.99 452.69 852.61 451.58 C 856.65 450.48 859.72 447.41 862.95 444.92 C 870.34 439.01 876.18 431.23 884.41 426.38 C 889.81 423.12 896.00 421.55 902.04 419.93 Z" />
<path fill="#27171d" opacity="1.00" d=" M 170.35 443.27 C 175.81 442.01 181.57 443.06 186.64 445.28 C 190.60 447.01 194.41 449.51 196.83 453.18 C 199.26 456.83 200.87 460.99 203.60 464.45 C 206.58 468.27 210.19 471.90 211.33 476.78 C 212.69 482.53 212.85 488.65 211.42 494.40 C 208.81 503.55 204.17 511.98 198.90 519.86 C 193.98 527.14 187.47 533.17 182.48 540.40 C 179.91 544.09 179.07 548.58 178.00 552.86 C 176.77 558.03 174.29 562.81 173.11 568.00 C 172.14 572.18 171.25 576.40 170.82 580.69 C 170.77 582.17 170.48 584.04 171.81 585.11 C 174.55 586.15 177.52 586.29 180.42 586.57 C 185.93 586.92 191.46 587.25 196.98 586.83 C 200.84 586.54 204.75 585.28 207.70 582.70 C 210.03 580.60 211.58 577.84 213.27 575.25 C 216.80 569.57 221.22 564.53 225.06 559.06 C 228.20 554.59 232.60 551.27 236.50 547.51 C 239.43 544.71 242.66 542.24 246.06 540.05 C 252.53 535.86 259.10 531.38 266.75 529.71 C 274.91 527.91 283.39 527.14 291.70 528.26 C 294.37 528.53 297.06 529.04 299.75 528.74 C 301.37 528.26 302.67 527.09 304.04 526.15 C 304.03 528.57 303.92 530.99 303.83 533.41 C 300.34 534.15 296.89 535.12 293.43 536.01 C 287.90 536.07 282.49 534.73 276.98 534.58 C 269.88 534.43 263.60 538.18 257.60 541.50 C 250.62 545.24 244.78 550.65 238.88 555.86 C 234.24 559.97 230.90 565.25 226.92 569.95 C 223.99 573.42 221.11 576.94 218.81 580.86 C 216.29 584.88 214.21 589.37 210.51 592.49 C 207.61 594.88 203.62 594.78 200.07 594.86 C 191.04 594.68 182.01 594.55 172.97 594.67 C 164.89 594.73 156.99 596.88 148.90 596.87 C 149.66 590.60 151.47 584.53 153.72 578.65 C 155.85 573.08 156.73 567.18 157.54 561.31 C 158.38 554.47 162.23 548.56 163.92 541.96 C 165.22 537.25 166.02 532.14 169.29 528.30 C 173.91 522.87 177.91 516.96 182.58 511.57 C 186.23 507.35 188.92 502.42 191.56 497.53 C 195.43 490.54 197.72 482.68 198.41 474.73 C 198.63 466.67 195.43 458.09 188.80 453.19 C 182.15 448.28 172.14 448.45 165.75 453.74 C 156.98 460.77 150.84 470.60 146.76 480.96 C 142.47 490.77 138.49 500.70 134.55 510.66 C 132.85 515.03 131.75 519.63 129.73 523.88 C 127.99 527.53 125.14 530.48 122.20 533.19 C 119.23 535.90 116.09 538.52 112.46 540.32 C 105.58 543.74 97.70 544.46 90.86 547.96 C 85.32 550.83 82.51 557.14 81.97 563.11 C 81.33 569.14 84.22 575.37 89.20 578.82 C 91.62 580.50 94.67 580.71 97.53 580.65 C 101.91 580.53 106.29 580.17 110.68 580.01 C 108.47 591.12 105.03 602.22 98.48 611.58 C 92.33 618.06 84.25 622.35 76.26 626.17 C 70.37 629.02 64.95 632.75 59.71 636.66 C 56.62 638.97 53.72 641.91 52.72 645.76 C 51.21 651.24 51.11 657.65 54.55 662.45 C 57.86 667.13 62.31 671.32 67.89 673.04 C 71.35 674.13 74.95 674.70 78.54 675.19 C 84.24 676.16 90.17 675.64 95.55 673.46 C 104.09 670.13 112.54 665.67 118.62 658.64 C 123.89 652.37 128.16 645.35 132.36 638.34 C 133.95 635.53 136.70 633.60 139.78 632.72 C 148.98 629.86 158.63 628.82 168.20 628.09 C 176.63 627.50 185.28 627.29 193.52 629.52 C 200.47 631.40 206.60 635.42 213.54 637.31 C 218.80 638.78 224.21 637.36 229.46 636.64 C 234.90 635.78 240.56 635.75 245.73 633.65 C 249.16 632.26 252.46 630.53 255.57 628.51 C 262.57 623.96 266.51 616.09 273.43 611.45 C 275.33 610.16 277.65 609.46 279.94 609.79 C 285.64 610.46 290.60 613.84 296.30 614.54 C 302.24 615.27 308.35 613.61 313.31 610.32 C 320.48 605.61 326.01 598.93 331.18 592.19 C 334.19 588.11 337.22 583.96 339.15 579.24 C 341.28 573.93 341.11 568.09 341.37 562.48 C 343.83 562.73 346.59 562.59 348.64 564.24 C 352.81 567.52 354.57 572.98 354.98 578.10 C 355.45 585.18 352.24 591.80 348.80 597.76 C 345.25 603.68 341.70 609.84 336.29 614.28 C 332.74 617.18 328.90 619.70 324.93 621.98 C 319.08 625.34 312.39 626.63 306.02 628.64 C 305.39 623.93 300.41 622.35 296.83 620.31 C 294.41 618.81 291.69 620.51 289.41 621.47 C 284.13 623.88 280.76 628.78 276.78 632.77 C 271.66 637.90 265.83 642.67 258.82 644.87 C 252.95 646.79 246.70 646.75 240.69 648.02 C 236.84 648.75 232.93 649.99 228.98 649.33 C 224.06 648.54 220.05 645.26 215.33 643.89 C 211.21 642.68 206.92 642.20 202.70 641.47 C 196.50 640.52 190.30 639.17 184.00 639.27 C 178.89 639.31 173.86 640.32 168.81 640.95 C 162.17 641.82 155.35 642.50 149.17 645.27 C 146.65 646.31 145.38 648.87 144.10 651.10 C 141.03 656.85 137.75 662.54 133.65 667.63 C 130.37 671.71 126.15 674.88 122.07 678.10 C 119.18 680.38 116.04 682.38 112.55 683.61 C 105.80 686.05 98.66 687.77 91.44 687.60 C 84.54 687.31 78.13 684.25 72.33 680.73 C 69.00 678.66 65.03 678.10 61.55 676.39 C 58.34 674.38 55.68 671.64 52.84 669.15 C 49.76 666.51 48.35 662.60 46.90 658.94 C 45.78 655.87 44.40 652.61 45.14 649.29 C 45.86 645.63 47.06 642.05 48.71 638.71 C 50.66 634.80 54.43 632.37 57.72 629.71 C 60.74 627.41 63.41 624.70 66.47 622.48 C 70.66 619.43 76.11 619.12 80.43 616.34 C 83.04 614.67 85.49 612.77 87.89 610.82 C 91.08 608.27 93.19 604.70 95.14 601.18 C 97.07 597.64 98.41 593.51 97.66 589.46 C 95.27 586.57 91.45 585.55 88.32 583.70 C 83.95 581.52 81.06 577.42 78.55 573.39 C 73.69 566.24 75.47 556.19 80.77 549.79 C 85.82 543.80 92.70 539.47 100.11 537.02 C 105.47 535.15 111.18 533.43 115.31 529.32 C 122.11 522.96 125.64 514.13 128.57 505.51 C 131.55 498.74 133.60 491.61 136.82 484.95 C 138.87 480.33 140.45 475.49 143.07 471.14 C 145.96 466.33 147.85 460.87 151.67 456.67 C 154.22 453.86 157.13 451.40 160.08 449.03 C 163.16 446.59 166.45 444.17 170.35 443.27 Z" />
</g>
<g id="#842b18ff">
<path fill="#842b18" opacity="1.00" d=" M 918.28 427.28 C 923.54 427.43 928.65 425.42 933.93 425.92 C 938.45 426.40 943.05 428.40 945.73 432.22 C 947.92 435.01 949.26 438.51 952.01 440.85 C 955.91 441.81 960.10 440.72 963.93 442.13 C 969.56 445.17 972.40 451.82 972.50 458.02 C 972.64 462.44 970.13 466.27 968.51 470.22 C 966.65 474.45 965.81 479.20 962.99 482.98 C 960.74 486.02 958.14 488.79 955.75 491.72 C 953.30 494.58 950.84 497.77 947.15 499.04 C 943.38 500.41 939.47 501.34 935.78 502.90 C 933.11 503.85 930.35 505.32 927.44 504.77 C 922.18 503.73 918.25 499.75 913.41 497.77 C 911.59 496.95 909.57 497.91 908.19 499.12 C 904.82 502.20 903.16 506.71 899.76 509.76 C 898.09 511.29 895.91 512.04 893.77 512.60 C 891.44 513.25 888.83 513.38 886.88 514.94 C 883.85 517.23 881.34 520.63 877.36 521.25 C 870.60 522.41 863.51 523.03 856.82 521.16 C 854.39 520.69 851.91 519.74 849.43 520.22 C 845.12 522.82 842.41 527.75 837.37 529.19 C 832.22 530.71 826.91 531.61 821.63 532.52 C 817.88 532.99 813.41 533.43 810.41 530.64 C 807.63 528.03 805.52 524.83 803.23 521.81 C 801.25 518.96 798.75 515.96 799.02 512.27 C 799.17 508.28 799.44 504.28 798.98 500.31 C 793.46 502.88 790.97 508.70 786.70 512.68 C 783.98 515.31 781.33 518.01 778.66 520.69 C 774.82 524.59 769.84 527.09 765.98 530.97 C 762.79 534.12 759.78 537.59 755.78 539.76 C 746.03 545.07 734.91 547.57 723.85 547.69 C 719.61 547.84 716.13 545.14 712.37 543.67 C 709.57 542.44 706.15 542.89 703.71 544.70 C 701.25 546.53 699.42 549.05 696.97 550.88 C 694.94 552.30 692.41 552.62 690.05 553.15 C 686.09 553.84 682.11 554.68 678.08 554.70 C 673.71 554.73 669.72 552.29 666.92 549.09 C 663.98 545.73 661.57 541.97 658.87 538.44 C 655.68 542.61 653.41 547.36 650.76 551.86 C 647.05 558.05 640.32 562.63 632.98 562.71 C 630.04 562.71 626.69 561.72 625.25 558.93 C 623.12 554.99 621.41 550.80 618.76 547.15 C 614.24 553.14 612.83 561.05 607.30 566.32 C 603.68 570.03 598.31 571.79 593.20 571.31 C 590.04 570.91 587.72 568.38 586.04 565.88 C 583.87 562.66 583.73 558.65 583.21 554.93 C 576.94 556.52 571.86 560.88 567.87 565.80 C 565.93 568.16 564.27 570.84 561.78 572.67 C 559.41 574.41 556.80 575.79 554.41 577.48 C 551.40 579.51 548.53 582.05 544.84 582.70 C 540.42 583.51 535.86 583.86 531.38 583.41 C 524.76 582.68 518.92 578.06 512.08 578.85 C 506.87 579.92 504.13 585.33 499.25 587.09 C 495.28 588.42 491.05 588.68 486.90 588.86 C 483.24 588.90 479.29 588.84 476.09 586.84 C 472.24 584.35 470.02 580.09 466.35 577.41 C 464.31 575.95 461.48 577.36 460.21 579.20 C 457.55 583.36 457.50 588.66 454.84 592.83 C 452.65 595.57 448.85 596.12 445.59 596.69 C 439.71 597.74 434.38 594.07 428.54 594.30 C 427.52 592.65 426.31 591.13 425.16 589.59 C 422.98 594.45 421.52 599.84 417.85 603.85 C 413.44 608.49 406.68 611.40 400.28 609.86 C 397.11 609.11 394.68 606.71 392.90 604.11 C 389.09 598.55 386.73 591.83 387.04 585.04 C 387.31 578.60 389.69 572.53 391.07 566.29 C 392.44 560.40 392.89 554.33 394.46 548.48 C 396.23 541.78 399.27 535.52 401.97 529.17 C 403.40 525.95 404.67 522.61 406.77 519.76 C 408.77 516.99 412.20 515.60 415.53 515.37 C 421.00 514.99 426.32 517.21 431.79 516.65 C 437.91 515.83 442.93 511.51 449.08 510.81 C 454.29 510.32 459.16 512.74 464.27 513.20 C 466.17 513.41 467.85 512.32 469.40 511.38 C 472.91 509.10 476.26 506.38 480.36 505.22 C 486.23 503.50 492.86 503.73 498.34 506.60 C 502.91 509.05 504.75 514.32 508.63 517.53 C 511.30 518.58 514.54 517.56 516.39 515.42 C 519.26 512.29 521.41 508.49 524.77 505.81 C 528.48 502.83 532.28 499.93 536.07 497.05 C 539.90 494.09 544.70 492.90 549.39 492.10 C 556.38 490.95 563.60 489.98 570.62 491.37 C 575.85 492.37 579.51 496.71 584.43 498.39 C 587.80 499.05 591.77 497.74 593.65 494.76 C 595.56 491.90 596.71 488.57 598.93 485.91 C 601.11 483.45 604.32 482.12 607.51 481.59 C 612.38 480.89 617.00 483.26 621.83 483.24 C 624.55 482.95 626.95 481.52 629.41 480.43 C 633.63 478.37 638.21 476.68 642.99 476.85 C 647.24 476.93 651.27 478.52 655.47 478.97 C 657.78 479.26 659.76 477.78 661.66 476.68 C 665.22 474.37 668.86 472.03 673.01 470.90 C 679.50 469.02 687.11 469.02 692.72 473.23 C 696.88 475.98 698.53 480.90 701.53 484.66 C 704.56 485.04 707.46 483.54 709.84 481.80 C 712.23 479.95 714.59 477.66 715.40 474.64 C 716.09 471.75 715.94 468.75 715.87 465.81 C 719.00 463.06 723.08 462.33 727.12 462.40 C 727.14 462.11 727.17 461.52 727.19 461.23 C 727.29 459.75 727.39 458.29 727.49 456.83 C 728.87 456.14 730.19 455.02 731.83 455.13 C 734.65 455.02 737.81 456.25 740.34 454.46 C 743.51 452.45 746.21 449.79 749.02 447.31 C 749.93 448.94 750.86 450.57 751.87 452.16 C 753.23 454.52 756.39 454.40 758.69 455.23 C 763.78 456.12 768.11 459.05 772.21 462.03 C 776.99 455.93 776.76 447.56 781.30 441.34 C 784.23 437.19 788.47 434.17 792.90 431.79 C 796.38 429.90 800.40 428.84 804.37 429.38 C 811.97 430.14 818.30 435.85 821.44 442.58 C 822.80 445.13 823.65 448.09 825.76 450.17 C 829.91 452.92 835.53 453.16 838.97 457.06 C 842.62 461.37 843.70 467.10 845.45 472.32 C 848.55 470.59 851.74 468.83 854.09 466.10 C 857.35 462.35 860.00 458.05 863.79 454.77 C 868.22 450.89 872.59 446.93 876.80 442.79 C 884.23 435.59 893.15 429.46 903.39 427.22 C 908.31 426.13 913.32 427.17 918.28 427.28 M 924.62 434.70 C 922.05 437.09 920.51 440.33 918.57 443.21 C 916.87 440.22 915.74 436.26 912.28 434.86 C 908.17 433.61 903.64 434.12 899.71 435.76 C 892.15 438.96 885.35 443.76 879.36 449.35 C 872.68 455.02 867.06 461.82 861.95 468.91 C 857.74 475.14 855.17 482.40 850.16 488.10 C 844.71 494.33 839.79 501.13 833.31 506.34 C 830.96 508.33 827.88 508.97 824.95 509.52 C 823.43 499.57 827.24 489.98 830.85 480.93 C 833.00 475.83 834.79 470.09 833.30 464.57 C 831.78 461.56 828.76 459.38 825.54 458.53 C 822.65 457.71 819.93 459.32 817.42 460.52 C 814.96 461.77 812.36 462.71 809.74 463.50 C 811.08 457.18 813.86 450.86 812.56 444.28 C 811.86 439.13 806.13 436.01 801.32 436.47 C 795.47 437.96 790.03 441.72 787.11 447.09 C 783.84 452.76 781.33 459.49 782.94 466.10 C 783.70 469.98 786.59 472.85 788.39 476.23 C 787.21 480.02 784.52 483.09 782.53 486.47 C 776.64 496.00 768.36 503.66 760.41 511.42 C 755.67 516.04 749.64 518.97 743.80 521.91 C 738.72 524.33 732.93 526.28 727.29 525.05 C 724.43 523.64 724.14 519.95 724.74 517.20 C 726.84 515.63 729.26 514.62 731.59 513.46 C 737.89 510.43 743.58 506.32 749.18 502.16 C 754.91 497.95 759.65 492.47 763.34 486.42 C 766.07 481.95 766.27 476.44 765.39 471.42 C 764.54 466.48 759.94 462.57 754.98 462.28 C 750.07 461.91 744.84 462.09 740.43 464.53 C 733.14 468.51 726.41 473.74 721.51 480.52 C 716.52 486.58 713.33 493.79 709.92 500.78 C 706.69 507.61 701.99 513.57 697.82 519.83 C 694.70 524.06 691.43 528.48 686.83 531.20 C 686.39 531.15 685.50 531.06 685.06 531.01 C 683.43 525.21 684.70 519.13 686.28 513.47 C 688.62 504.86 691.47 496.08 690.74 487.03 C 690.53 484.06 689.41 480.93 686.89 479.16 C 683.84 477.05 679.86 476.83 676.31 477.42 C 671.96 478.36 668.82 481.79 665.78 484.79 C 661.34 489.13 657.94 494.34 654.24 499.29 C 653.83 496.52 653.65 493.70 652.82 491.02 C 651.69 487.53 648.49 484.68 644.76 484.42 C 639.58 483.94 634.64 486.51 630.88 489.88 C 625.56 494.39 621.91 500.43 616.99 505.31 C 617.16 501.47 618.12 497.53 617.20 493.74 C 615.21 490.09 610.42 488.68 606.53 489.46 C 602.71 492.54 602.00 497.85 600.25 502.18 C 597.85 508.26 597.23 515.07 593.77 520.71 C 589.49 526.04 583.83 530.75 576.96 532.13 C 577.32 525.80 578.90 519.45 577.86 513.12 C 577.32 509.28 576.07 505.43 573.54 502.44 C 570.84 499.15 566.56 497.00 562.26 497.45 C 558.76 497.89 556.03 500.41 552.74 501.43 C 549.10 501.95 545.16 500.99 541.82 502.94 C 533.51 507.50 526.15 514.25 521.91 522.83 C 518.37 529.23 516.81 536.56 512.69 542.65 C 508.31 549.18 503.68 555.57 498.35 561.36 C 496.45 563.44 494.12 565.05 491.79 566.60 C 491.04 563.94 490.46 561.14 491.09 558.39 C 492.59 550.66 494.08 542.91 496.08 535.29 C 497.38 530.12 498.27 524.70 497.36 519.40 C 496.28 513.71 489.76 510.39 484.34 511.46 C 479.13 512.27 475.40 516.33 471.90 519.91 C 467.87 523.97 464.92 528.90 461.29 533.29 C 460.66 529.87 460.52 526.23 458.89 523.09 C 457.27 519.93 453.62 518.16 450.14 518.55 C 445.18 519.10 440.50 521.47 436.83 524.83 C 432.01 529.18 428.57 534.76 424.03 539.37 C 424.25 536.07 424.85 532.76 424.42 529.46 C 423.35 524.84 417.96 522.21 413.54 523.51 C 411.63 524.68 410.94 526.99 410.10 528.94 C 407.89 535.15 405.51 541.32 403.87 547.71 C 401.81 555.68 399.33 563.54 397.77 571.63 C 396.36 578.89 394.57 586.30 395.55 593.74 C 396.17 598.24 401.16 601.45 405.52 600.41 C 408.48 599.45 410.82 596.96 411.82 594.04 C 413.32 589.72 414.10 585.16 415.91 580.95 C 420.15 570.82 424.84 560.85 430.38 551.36 C 434.28 545.84 437.51 539.55 443.19 535.60 C 443.77 541.37 442.01 546.92 440.78 552.48 C 438.86 562.99 434.43 573.07 434.42 583.90 C 434.28 587.25 437.22 590.72 440.71 590.44 C 443.29 590.25 445.96 589.60 448.08 588.07 C 449.88 586.28 450.41 583.65 451.20 581.34 C 454.54 568.74 459.88 556.74 466.31 545.43 C 469.72 539.00 473.94 532.91 479.53 528.18 C 480.09 533.51 477.79 538.48 476.75 543.60 C 475.23 551.00 472.93 558.38 473.22 566.02 C 473.26 570.72 474.63 575.61 477.89 579.12 C 480.93 582.23 485.63 583.09 489.82 582.60 C 494.74 581.85 499.01 578.92 502.62 575.64 C 507.33 571.43 510.69 566.04 514.84 561.34 C 517.15 565.71 519.23 570.60 523.56 573.37 C 528.74 577.08 535.50 577.47 541.60 576.44 C 548.35 575.07 554.39 571.06 558.89 565.92 C 562.99 561.23 566.78 556.20 569.46 550.56 C 570.61 548.36 571.54 545.97 573.27 544.16 C 576.91 542.51 581.13 543.06 584.82 541.57 C 587.04 540.64 589.06 539.29 591.12 538.07 C 589.78 545.44 588.26 553.04 589.65 560.53 C 590.35 563.91 594.25 565.10 597.24 565.55 C 600.52 566.05 603.36 563.46 604.33 560.51 C 608.57 548.69 611.81 536.32 618.57 525.61 C 623.70 517.16 627.76 507.34 636.23 501.62 C 636.41 510.15 633.96 518.38 631.71 526.51 C 629.67 533.67 628.21 541.01 627.63 548.44 C 627.17 552.06 630.14 556.11 634.01 555.78 C 636.97 555.74 640.76 555.35 642.25 552.36 C 644.40 548.09 645.24 543.33 646.69 538.81 C 649.00 531.02 652.37 523.59 656.40 516.55 C 660.74 508.11 665.15 499.05 673.27 493.60 C 673.18 496.73 672.92 499.88 672.06 502.91 C 669.96 510.29 667.44 517.63 666.54 525.29 C 665.88 531.63 666.48 538.51 670.15 543.92 C 672.72 547.65 677.59 548.99 681.93 548.68 C 686.70 548.24 691.03 545.69 694.56 542.57 C 700.10 537.53 704.59 531.48 708.56 525.17 C 709.90 528.90 711.27 532.91 714.46 535.51 C 719.26 539.64 725.95 540.31 732.03 539.98 C 736.73 539.78 741.33 538.47 745.57 536.46 C 757.42 531.22 767.26 522.41 776.03 513.04 C 784.18 503.45 792.43 493.84 799.03 483.08 C 800.12 481.50 801.16 479.60 803.12 478.99 C 806.70 477.68 810.54 477.37 814.30 476.90 C 813.24 480.43 811.91 483.88 810.38 487.24 C 807.51 493.50 805.82 500.31 805.47 507.19 C 805.15 513.90 808.69 520.96 814.78 524.03 C 819.97 525.40 825.68 525.17 830.84 523.69 C 840.29 520.40 845.41 511.26 852.06 504.47 C 854.33 508.21 856.26 512.40 859.87 515.08 C 862.46 516.99 865.87 516.95 868.94 516.75 C 873.29 516.44 877.00 513.88 880.44 511.42 C 889.35 505.06 896.09 496.27 902.62 487.61 C 906.82 482.21 910.23 476.06 915.70 471.78 C 916.71 477.09 917.08 482.66 919.53 487.58 C 920.91 490.29 923.11 492.99 926.28 493.56 C 930.84 494.33 935.66 493.07 939.40 490.35 C 948.65 483.44 955.27 473.69 960.38 463.47 C 962.66 458.48 960.76 452.94 959.10 448.07 C 958.39 448.14 956.96 448.29 956.25 448.36 C 952.57 453.95 949.08 459.67 945.01 464.98 C 941.31 469.81 938.28 475.42 932.87 478.60 C 932.07 475.81 931.33 472.94 931.67 470.02 C 932.28 463.49 933.38 456.95 935.67 450.78 C 937.11 446.57 938.67 441.97 937.43 437.52 C 935.45 432.61 928.59 431.99 924.62 434.70 Z" />
<path fill="#842b18" opacity="1.00" d=" M 165.75 453.74 C 172.14 448.45 182.15 448.28 188.80 453.19 C 195.43 458.09 198.63 466.67 198.41 474.73 C 197.72 482.68 195.43 490.54 191.56 497.53 C 188.92 502.42 186.23 507.35 182.58 511.57 C 177.91 516.96 173.91 522.87 169.29 528.30 C 166.02 532.14 165.22 537.25 163.92 541.96 C 162.23 548.56 158.38 554.47 157.54 561.31 C 156.73 567.18 155.85 573.08 153.72 578.65 C 151.47 584.53 149.66 590.60 148.90 596.87 C 156.99 596.88 164.89 594.73 172.97 594.67 C 182.01 594.55 191.04 594.68 200.07 594.86 C 203.62 594.78 207.61 594.88 210.51 592.49 C 214.21 589.37 216.29 584.88 218.81 580.86 C 221.11 576.94 223.99 573.42 226.92 569.95 C 230.90 565.25 234.24 559.97 238.88 555.86 C 244.78 550.65 250.62 545.24 257.60 541.50 C 263.60 538.18 269.88 534.43 276.98 534.58 C 282.49 534.73 287.90 536.07 293.43 536.01 C 299.04 536.56 304.81 536.24 310.29 537.67 C 314.38 541.79 311.56 548.32 313.77 553.23 C 315.15 555.43 318.13 556.46 320.58 555.59 C 324.23 554.24 326.89 551.20 330.32 549.45 C 332.60 548.35 335.17 548.19 337.64 547.80 C 338.75 552.74 340.22 557.74 339.73 562.87 C 338.94 570.45 337.13 578.28 332.29 584.38 C 327.94 589.97 324.36 596.26 318.87 600.87 C 315.09 604.09 311.62 608.10 306.70 609.55 C 302.09 610.82 297.18 611.17 292.45 610.36 C 287.73 609.60 284.01 606.39 280.49 603.39 C 275.58 606.44 270.47 609.27 266.11 613.11 C 262.01 616.70 259.81 622.13 255.09 625.05 C 250.00 628.27 243.90 629.03 238.09 630.03 C 233.81 630.71 229.71 632.17 225.51 633.17 C 220.73 634.29 215.71 633.98 210.98 632.81 C 204.91 631.33 199.40 628.22 193.39 626.55 C 186.13 624.49 178.55 623.22 170.99 623.74 C 163.86 624.20 156.86 625.70 149.78 626.51 C 145.17 627.18 140.16 627.41 136.28 630.28 C 132.04 633.42 128.77 637.70 126.17 642.26 C 123.59 646.69 121.64 651.50 118.54 655.62 C 115.95 659.10 112.14 661.35 108.44 663.46 C 104.06 665.90 99.57 668.34 94.64 669.46 C 91.27 670.25 87.78 670.47 84.45 671.47 C 82.19 672.17 80.38 673.77 78.54 675.19 C 74.95 674.70 71.35 674.13 67.89 673.04 C 62.31 671.32 57.86 667.13 54.55 662.45 C 51.11 657.65 51.21 651.24 52.72 645.76 C 53.72 641.91 56.62 638.97 59.71 636.66 C 64.95 632.75 70.37 629.02 76.26 626.17 C 84.25 622.35 92.33 618.06 98.48 611.58 C 105.03 602.22 108.47 591.12 110.68 580.01 C 106.29 580.17 101.91 580.53 97.53 580.65 C 94.67 580.71 91.62 580.50 89.20 578.82 C 84.22 575.37 81.33 569.14 81.97 563.11 C 82.51 557.14 85.32 550.83 90.86 547.96 C 97.70 544.46 105.58 543.74 112.46 540.32 C 116.09 538.52 119.23 535.90 122.20 533.19 C 125.14 530.48 127.99 527.53 129.73 523.88 C 131.75 519.63 132.85 515.03 134.55 510.66 C 138.49 500.70 142.47 490.77 146.76 480.96 C 150.84 470.60 156.98 460.77 165.75 453.74 M 173.50 457.56 C 169.71 458.59 167.01 461.69 164.89 464.83 C 161.83 469.43 158.18 473.69 155.87 478.75 C 150.34 490.90 145.37 503.31 141.04 515.94 C 139.19 521.08 138.32 526.67 135.34 531.33 C 132.07 535.43 127.43 538.11 123.55 541.57 C 117.71 546.69 111.18 551.01 104.09 554.22 C 101.77 553.44 99.28 551.85 96.79 552.84 C 93.38 554.06 90.22 556.75 89.54 560.45 C 88.67 563.87 90.27 567.90 93.56 569.38 C 97.04 570.41 100.81 569.55 103.91 567.82 C 107.73 565.74 111.39 563.37 115.04 561.00 C 120.37 557.57 124.90 553.05 130.32 549.75 C 128.48 557.71 125.82 565.45 123.29 573.21 C 119.20 584.01 115.67 595.06 110.65 605.49 C 108.59 609.80 107.02 614.36 104.55 618.47 C 103.28 620.65 100.94 621.81 98.81 622.98 C 94.18 625.36 89.63 627.91 84.87 630.04 C 77.96 633.12 71.51 637.12 65.19 641.24 C 62.78 643.05 59.74 644.94 59.22 648.17 C 58.82 651.34 58.80 655.24 61.59 657.40 C 66.68 661.74 73.26 664.53 80.00 664.55 C 84.67 664.41 89.17 662.94 93.57 661.46 C 101.24 659.02 106.88 652.91 112.13 647.12 C 117.39 641.23 120.02 633.67 123.89 626.91 C 125.75 623.22 130.22 622.63 133.78 621.56 C 149.17 617.79 165.05 614.58 180.97 615.91 C 190.36 617.09 199.96 618.36 208.64 622.32 C 212.67 624.13 216.62 628.23 221.40 626.44 C 223.24 624.86 224.48 622.75 225.92 620.83 C 228.90 622.43 231.91 625.12 235.55 624.42 C 242.18 623.23 247.87 619.25 252.66 614.69 C 260.09 608.41 266.02 600.64 272.14 593.14 C 276.03 588.57 279.12 583.30 283.79 579.44 C 284.52 585.38 284.05 591.75 286.90 597.22 C 288.94 601.35 293.76 604.18 298.39 603.30 C 302.63 602.59 306.60 600.61 309.89 597.86 C 317.10 591.92 322.53 584.11 326.97 575.97 C 330.21 570.01 328.94 562.85 326.55 556.84 C 321.77 561.43 318.31 567.12 314.55 572.52 C 310.75 578.00 306.52 583.20 301.71 587.82 C 300.54 585.38 299.28 582.81 299.60 580.02 C 300.10 572.69 301.77 565.43 304.56 558.64 C 306.07 554.82 307.45 550.61 306.39 546.49 C 305.67 543.95 303.63 541.43 300.83 541.25 C 297.94 541.02 294.30 540.75 292.33 543.34 C 290.37 545.69 288.95 548.42 287.37 551.03 C 285.52 547.66 283.93 543.47 279.99 542.07 C 275.66 540.36 271.02 542.30 267.09 544.17 C 259.24 548.26 251.71 553.15 245.39 559.39 C 236.28 567.79 228.39 577.63 222.92 588.78 C 220.47 594.15 219.87 600.09 219.06 605.88 C 212.12 604.35 205.19 602.45 198.03 602.25 C 189.79 601.99 181.52 602.00 173.30 602.63 C 165.48 603.59 157.65 604.65 149.89 606.05 C 143.47 607.15 137.25 609.21 130.82 610.29 C 133.44 600.29 137.68 590.83 140.91 581.04 C 145.53 567.44 148.42 553.35 152.33 539.55 C 154.06 533.56 154.58 526.79 159.03 522.02 C 167.79 512.27 176.80 502.33 182.21 490.24 C 184.49 485.45 186.71 480.44 186.77 475.04 C 186.99 469.62 186.82 463.41 182.71 459.32 C 180.46 456.66 176.58 456.74 173.50 457.56 Z" />
<path fill="#842b18" opacity="1.00" d=" M 797.38 454.55 C 798.13 452.59 799.72 451.16 801.11 449.65 C 801.32 454.24 800.09 458.82 796.95 462.27 C 796.83 459.70 796.43 457.01 797.38 454.55 Z" />
<path fill="#842b18" opacity="1.00" d=" M 895.90 456.84 C 901.43 453.27 908.04 452.12 914.53 452.23 C 905.81 467.05 895.75 481.33 882.90 492.89 C 878.80 496.71 874.00 499.71 868.78 501.71 C 866.49 494.94 869.56 487.85 872.92 482.01 C 878.86 472.31 885.51 462.24 895.90 456.84 Z" />
<path fill="#842b18" opacity="1.00" d=" M 171.84 475.99 C 173.03 472.76 174.79 469.78 176.93 467.09 C 177.59 469.29 178.83 471.56 178.25 473.93 C 177.30 477.95 175.12 481.51 173.22 485.14 C 171.11 489.10 168.77 492.96 165.80 496.34 C 166.63 489.25 169.34 482.61 171.84 475.99 Z" />
<path fill="#842b18" opacity="1.00" d=" M 744.17 479.14 C 746.60 476.72 749.99 475.86 753.33 475.60 C 752.78 478.34 752.20 481.18 750.56 483.52 C 744.70 492.38 736.65 500.03 726.84 504.31 C 728.81 493.87 736.63 486.02 744.17 479.14 Z" />
<path fill="#842b18" opacity="1.00" d=" M 558.66 514.00 C 558.77 511.62 560.69 509.98 562.03 508.23 C 567.06 513.77 565.66 521.96 563.44 528.42 C 560.38 524.29 557.82 519.30 558.66 514.00 Z" />
<path fill="#842b18" opacity="1.00" d=" M 540.66 520.67 C 541.97 518.87 543.85 517.61 545.67 516.39 C 546.71 521.49 547.22 526.82 549.61 531.53 C 551.70 535.60 555.40 538.44 558.88 541.25 C 556.02 549.15 551.24 556.63 543.83 560.93 C 541.06 562.56 536.99 564.53 534.32 561.70 C 530.73 557.34 531.22 551.27 531.48 545.99 C 531.78 536.84 535.30 528.02 540.66 520.67 Z" />
<path fill="#842b18" opacity="1.00" d=" M 259.36 568.32 C 265.86 563.12 274.20 560.48 282.50 560.70 C 281.26 564.13 279.60 567.40 277.29 570.24 C 268.53 581.38 259.66 592.64 248.65 601.67 C 245.19 604.55 240.98 606.27 236.71 607.53 C 236.28 605.46 235.41 603.36 235.93 601.23 C 236.99 595.93 239.60 591.09 242.52 586.59 C 247.00 579.57 252.91 573.54 259.36 568.32 Z" />
<path fill="#842b18" opacity="1.00" d=" M 76.25 644.22 C 83.24 641.14 89.86 637.11 97.29 635.12 C 94.65 640.52 91.20 645.75 86.16 649.19 C 80.74 652.77 73.70 654.73 67.47 652.10 C 69.51 648.63 72.50 645.78 76.25 644.22 Z" />
</g>
<g id="#fdd289ff">
<path fill="#fdd289" opacity="1.00" d=" M 924.62 434.70 C 928.59 431.99 935.45 432.61 937.43 437.52 C 938.67 441.97 937.11 446.57 935.67 450.78 C 933.38 456.95 932.28 463.49 931.67 470.02 C 931.33 472.94 932.07 475.81 932.87 478.60 C 938.28 475.42 941.31 469.81 945.01 464.98 C 949.08 459.67 952.57 453.95 956.25 448.36 C 956.96 448.29 958.39 448.14 959.10 448.07 C 960.76 452.94 962.66 458.48 960.38 463.47 C 955.27 473.69 948.65 483.44 939.40 490.35 C 935.66 493.07 930.84 494.33 926.28 493.56 C 923.11 492.99 920.91 490.29 919.53 487.58 C 917.08 482.66 916.71 477.09 915.70 471.78 C 910.23 476.06 906.82 482.21 902.62 487.61 C 896.09 496.27 889.35 505.06 880.44 511.42 C 877.00 513.88 873.29 516.44 868.94 516.75 C 865.87 516.95 862.46 516.99 859.87 515.08 C 856.26 512.40 854.33 508.21 852.06 504.47 C 845.41 511.26 840.29 520.40 830.84 523.69 C 825.68 525.17 819.97 525.40 814.78 524.03 C 808.69 520.96 805.15 513.90 805.47 507.19 C 805.82 500.31 807.51 493.50 810.38 487.24 C 811.91 483.88 813.24 480.43 814.30 476.90 C 810.54 477.37 806.70 477.68 803.12 478.99 C 801.16 479.60 800.12 481.50 799.03 483.08 C 792.43 493.84 784.18 503.45 776.03 513.04 C 767.26 522.41 757.42 531.22 745.57 536.46 C 741.33 538.47 736.73 539.78 732.03 539.98 C 725.95 540.31 719.26 539.64 714.46 535.51 C 711.27 532.91 709.90 528.90 708.56 525.17 C 704.59 531.48 700.10 537.53 694.56 542.57 C 691.03 545.69 686.70 548.24 681.93 548.68 C 677.59 548.99 672.72 547.65 670.15 543.92 C 666.48 538.51 665.88 531.63 666.54 525.29 C 667.44 517.63 669.96 510.29 672.06 502.91 C 672.92 499.88 673.18 496.73 673.27 493.60 C 665.15 499.05 660.74 508.11 656.40 516.55 C 652.37 523.59 649.00 531.02 646.69 538.81 C 645.24 543.33 644.40 548.09 642.25 552.36 C 640.76 555.35 636.97 555.74 634.01 555.78 C 630.14 556.11 627.17 552.06 627.63 548.44 C 628.21 541.01 629.67 533.67 631.71 526.51 C 633.96 518.38 636.41 510.15 636.23 501.62 C 627.76 507.34 623.70 517.16 618.57 525.61 C 611.81 536.32 608.57 548.69 604.33 560.51 C 603.36 563.46 600.52 566.05 597.24 565.55 C 594.25 565.10 590.35 563.91 589.65 560.53 C 588.26 553.04 589.78 545.44 591.12 538.07 C 589.06 539.29 587.04 540.64 584.82 541.57 C 581.13 543.06 576.91 542.51 573.27 544.16 C 571.54 545.97 570.61 548.36 569.46 550.56 C 566.78 556.20 562.99 561.23 558.89 565.92 C 554.39 571.06 548.35 575.07 541.60 576.44 C 535.50 577.47 528.74 577.08 523.56 573.37 C 519.23 570.60 517.15 565.71 514.84 561.34 C 510.69 566.04 507.33 571.43 502.62 575.64 C 499.01 578.92 494.74 581.85 489.82 582.60 C 485.63 583.09 480.93 582.23 477.89 579.12 C 474.63 575.61 473.26 570.72 473.22 566.02 C 472.93 558.38 475.23 551.00 476.75 543.60 C 477.79 538.48 480.09 533.51 479.53 528.18 C 473.94 532.91 469.72 539.00 466.31 545.43 C 459.88 556.74 454.54 568.74 451.20 581.34 C 450.41 583.65 449.88 586.28 448.08 588.07 C 445.96 589.60 443.29 590.25 440.71 590.44 C 437.22 590.72 434.28 587.25 434.42 583.90 C 434.43 573.07 438.86 562.99 440.78 552.48 C 442.01 546.92 443.77 541.37 443.19 535.60 C 437.51 539.55 434.28 545.84 430.38 551.36 C 424.84 560.85 420.15 570.82 415.91 580.95 C 414.10 585.16 413.32 589.72 411.82 594.04 C 410.82 596.96 408.48 599.45 405.52 600.41 C 401.16 601.45 396.17 598.24 395.55 593.74 C 394.57 586.30 396.36 578.89 397.77 571.63 C 399.33 563.54 401.81 555.68 403.87 547.71 C 405.51 541.32 407.89 535.15 410.10 528.94 C 410.94 526.99 411.63 524.68 413.54 523.51 C 417.96 522.21 423.35 524.84 424.42 529.46 C 424.85 532.76 424.25 536.07 424.03 539.37 C 428.57 534.76 432.01 529.18 436.83 524.83 C 440.50 521.47 445.18 519.10 450.14 518.55 C 453.62 518.16 457.27 519.93 458.89 523.09 C 460.52 526.23 460.66 529.87 461.29 533.29 C 464.92 528.90 467.87 523.97 471.90 519.91 C 475.40 516.33 479.13 512.27 484.34 511.46 C 489.76 510.39 496.28 513.71 497.36 519.40 C 498.27 524.70 497.38 530.12 496.08 535.29 C 494.08 542.91 492.59 550.66 491.09 558.39 C 490.46 561.14 491.04 563.94 491.79 566.60 C 494.12 565.05 496.45 563.44 498.35 561.36 C 503.68 555.57 508.31 549.18 512.69 542.65 C 516.81 536.56 518.37 529.23 521.91 522.83 C 526.15 514.25 533.51 507.50 541.82 502.94 C 545.16 500.99 549.10 501.95 552.74 501.43 C 556.03 500.41 558.76 497.89 562.26 497.45 C 566.56 497.00 570.84 499.15 573.54 502.44 C 576.07 505.43 577.32 509.28 577.86 513.12 C 578.90 519.45 577.32 525.80 576.96 532.13 C 583.83 530.75 589.49 526.04 593.77 520.71 C 597.23 515.07 597.85 508.26 600.25 502.18 C 602.00 497.85 602.71 492.54 606.53 489.46 C 610.42 488.68 615.21 490.09 617.20 493.74 C 618.12 497.53 617.16 501.47 616.99 505.31 C 621.91 500.43 625.56 494.39 630.88 489.88 C 634.64 486.51 639.58 483.94 644.76 484.42 C 648.49 484.68 651.69 487.53 652.82 491.02 C 653.65 493.70 653.83 496.52 654.24 499.29 C 657.94 494.34 661.34 489.13 665.78 484.79 C 668.82 481.79 671.96 478.36 676.31 477.42 C 679.86 476.83 683.84 477.05 686.89 479.16 C 689.41 480.93 690.53 484.06 690.74 487.03 C 691.47 496.08 688.62 504.86 686.28 513.47 C 684.70 519.13 683.43 525.21 685.06 531.01 C 685.50 531.06 686.39 531.15 686.83 531.20 C 691.43 528.48 694.70 524.06 697.82 519.83 C 701.99 513.57 706.69 507.61 709.92 500.78 C 713.33 493.79 716.52 486.58 721.51 480.52 C 726.41 473.74 733.14 468.51 740.43 464.53 C 744.84 462.09 750.07 461.91 754.98 462.28 C 759.94 462.57 764.54 466.48 765.39 471.42 C 766.27 476.44 766.07 481.95 763.34 486.42 C 759.65 492.47 754.91 497.95 749.18 502.16 C 743.58 506.32 737.89 510.43 731.59 513.46 C 729.26 514.62 726.84 515.63 724.74 517.20 C 724.14 519.95 724.43 523.64 727.29 525.05 C 732.93 526.28 738.72 524.33 743.80 521.91 C 749.64 518.97 755.67 516.04 760.41 511.42 C 768.36 503.66 776.64 496.00 782.53 486.47 C 784.52 483.09 787.21 480.02 788.39 476.23 C 786.59 472.85 783.70 469.98 782.94 466.10 C 781.33 459.49 783.84 452.76 787.11 447.09 C 790.03 441.72 795.47 437.96 801.32 436.47 C 806.13 436.01 811.86 439.13 812.56 444.28 C 813.86 450.86 811.08 457.18 809.74 463.50 C 812.36 462.71 814.96 461.77 817.42 460.52 C 819.93 459.32 822.65 457.71 825.54 458.53 C 828.76 459.38 831.78 461.56 833.30 464.57 C 834.79 470.09 833.00 475.83 830.85 480.93 C 827.24 489.98 823.43 499.57 824.95 509.52 C 827.88 508.97 830.96 508.33 833.31 506.34 C 839.79 501.13 844.71 494.33 850.16 488.10 C 855.17 482.40 857.74 475.14 861.95 468.91 C 867.06 461.82 872.68 455.02 879.36 449.35 C 885.35 443.76 892.15 438.96 899.71 435.76 C 903.64 434.12 908.17 433.61 912.28 434.86 C 915.74 436.26 916.87 440.22 918.57 443.21 C 920.51 440.33 922.05 437.09 924.62 434.70 M 797.38 454.55 C 796.43 457.01 796.83 459.70 796.95 462.27 C 800.09 458.82 801.32 454.24 801.11 449.65 C 799.72 451.16 798.13 452.59 797.38 454.55 M 895.90 456.84 C 885.51 462.24 878.86 472.31 872.92 482.01 C 869.56 487.85 866.49 494.94 868.78 501.71 C 874.00 499.71 878.80 496.71 882.90 492.89 C 895.75 481.33 905.81 467.05 914.53 452.23 C 908.04 452.12 901.43 453.27 895.90 456.84 M 744.17 479.14 C 736.63 486.02 728.81 493.87 726.84 504.31 C 736.65 500.03 744.70 492.38 750.56 483.52 C 752.20 481.18 752.78 478.34 753.33 475.60 C 749.99 475.86 746.60 476.72 744.17 479.14 M 558.66 514.00 C 557.82 519.30 560.38 524.29 563.44 528.42 C 565.66 521.96 567.06 513.77 562.03 508.23 C 560.69 509.98 558.77 511.62 558.66 514.00 M 540.66 520.67 C 535.30 528.02 531.78 536.84 531.48 545.99 C 531.22 551.27 530.73 557.34 534.32 561.70 C 536.99 564.53 541.06 562.56 543.83 560.93 C 551.24 556.63 556.02 549.15 558.88 541.25 C 555.40 538.44 551.70 535.60 549.61 531.53 C 547.22 526.82 546.71 521.49 545.67 516.39 C 543.85 517.61 541.97 518.87 540.66 520.67 Z" />
<path fill="#fdd289" opacity="1.00" d=" M 173.50 457.56 C 176.58 456.74 180.46 456.66 182.71 459.32 C 186.82 463.41 186.99 469.62 186.77 475.04 C 186.71 480.44 184.49 485.45 182.21 490.24 C 176.80 502.33 167.79 512.27 159.03 522.02 C 154.58 526.79 154.06 533.56 152.33 539.55 C 148.42 553.35 145.53 567.44 140.91 581.04 C 137.68 590.83 133.44 600.29 130.82 610.29 C 137.25 609.21 143.47 607.15 149.89 606.05 C 157.65 604.65 165.48 603.59 173.30 602.63 C 181.52 602.00 189.79 601.99 198.03 602.25 C 205.19 602.45 212.12 604.35 219.06 605.88 C 219.87 600.09 220.47 594.15 222.92 588.78 C 228.39 577.63 236.28 567.79 245.39 559.39 C 251.71 553.15 259.24 548.26 267.09 544.17 C 271.02 542.30 275.66 540.36 279.99 542.07 C 283.93 543.47 285.52 547.66 287.37 551.03 C 288.95 548.42 290.37 545.69 292.33 543.34 C 294.30 540.75 297.94 541.02 300.83 541.25 C 303.63 541.43 305.67 543.95 306.39 546.49 C 307.45 550.61 306.07 554.82 304.56 558.64 C 301.77 565.43 300.10 572.69 299.60 580.02 C 299.28 582.81 300.54 585.38 301.71 587.82 C 306.52 583.20 310.75 578.00 314.55 572.52 C 318.31 567.12 321.77 561.43 326.55 556.84 C 328.94 562.85 330.21 570.01 326.97 575.97 C 322.53 584.11 317.10 591.92 309.89 597.86 C 306.60 600.61 302.63 602.59 298.39 603.30 C 293.76 604.18 288.94 601.35 286.90 597.22 C 284.05 591.75 284.52 585.38 283.79 579.44 C 279.12 583.30 276.03 588.57 272.14 593.14 C 266.02 600.64 260.09 608.41 252.66 614.69 C 247.87 619.25 242.18 623.23 235.55 624.42 C 231.91 625.12 228.90 622.43 225.92 620.83 C 224.48 622.75 223.24 624.86 221.40 626.44 C 216.62 628.23 212.67 624.13 208.64 622.32 C 199.96 618.36 190.36 617.09 180.97 615.91 C 165.05 614.58 149.17 617.79 133.78 621.56 C 130.22 622.63 125.75 623.22 123.89 626.91 C 120.02 633.67 117.39 641.23 112.13 647.12 C 106.88 652.91 101.24 659.02 93.57 661.46 C 89.17 662.94 84.67 664.41 80.00 664.55 C 73.26 664.53 66.68 661.74 61.59 657.40 C 58.80 655.24 58.82 651.34 59.22 648.17 C 59.74 644.94 62.78 643.05 65.19 641.24 C 71.51 637.12 77.96 633.12 84.87 630.04 C 89.63 627.91 94.18 625.36 98.81 622.98 C 100.94 621.81 103.28 620.65 104.55 618.47 C 107.02 614.36 108.59 609.80 110.65 605.49 C 115.67 595.06 119.20 584.01 123.29 573.21 C 125.82 565.45 128.48 557.71 130.32 549.75 C 124.90 553.05 120.37 557.57 115.04 561.00 C 111.39 563.37 107.73 565.74 103.91 567.82 C 100.81 569.55 97.04 570.41 93.56 569.38 C 90.27 567.90 88.67 563.87 89.54 560.45 C 90.22 556.75 93.38 554.06 96.79 552.84 C 99.28 551.85 101.77 553.44 104.09 554.22 C 111.18 551.01 117.71 546.69 123.55 541.57 C 127.43 538.11 132.07 535.43 135.34 531.33 C 138.32 526.67 139.19 521.08 141.04 515.94 C 145.37 503.31 150.34 490.90 155.87 478.75 C 158.18 473.69 161.83 469.43 164.89 464.83 C 167.01 461.69 169.71 458.59 173.50 457.56 M 171.84 475.99 C 169.34 482.61 166.63 489.25 165.80 496.34 C 168.77 492.96 171.11 489.10 173.22 485.14 C 175.12 481.51 177.30 477.95 178.25 473.93 C 178.83 471.56 177.59 469.29 176.93 467.09 C 174.79 469.78 173.03 472.76 171.84 475.99 M 259.36 568.32 C 252.91 573.54 247.00 579.57 242.52 586.59 C 239.60 591.09 236.99 595.93 235.93 601.23 C 235.41 603.36 236.28 605.46 236.71 607.53 C 240.98 606.27 245.19 604.55 248.65 601.67 C 259.66 592.64 268.53 581.38 277.29 570.24 C 279.60 567.40 281.26 564.13 282.50 560.70 C 274.20 560.48 265.86 563.12 259.36 568.32 M 76.25 644.22 C 72.50 645.78 69.51 648.63 67.47 652.10 C 73.70 654.73 80.74 652.77 86.16 649.19 C 91.20 645.75 94.65 640.52 97.29 635.12 C 89.86 637.11 83.24 641.14 76.25 644.22 Z" />
</g>
<g id="#82807eff">
<path fill="#82807e" opacity="1.00" d=" M 967.38 944.41 C 967.69 944.41 968.31 944.42 968.62 944.42 C 969.79 946.65 970.58 949.08 971.69 951.37 C 973.90 956.16 977.73 960.09 982.14 962.93 C 985.08 964.83 988.49 965.79 991.59 967.38 C 991.60 967.69 991.60 968.32 991.61 968.63 C 989.35 969.80 986.92 970.58 984.63 971.68 C 979.82 973.88 975.93 977.74 973.08 982.14 C 971.18 985.07 970.21 988.46 968.60 991.55 C 968.30 991.56 967.68 991.58 967.38 991.59 C 965.78 988.46 964.82 985.03 962.93 982.07 C 960.63 978.44 957.46 975.39 953.87 973.08 C 950.92 971.16 947.51 970.19 944.41 968.61 C 944.42 968.31 944.46 967.69 944.47 967.39 C 946.68 966.19 949.09 965.40 951.36 964.31 C 956.17 962.11 960.08 958.27 962.92 953.86 C 964.82 950.92 965.79 947.51 967.38 944.41 Z" />
</g>
</svg>
